<?xml version="1.0" encoding="UTF-8" standalone="no"?>
<!-- Created with Inkscape (http://www.inkscape.org/) -->

<svg
   xmlns:dc="http://purl.org/dc/elements/1.1/"
   xmlns:cc="http://creativecommons.org/ns#"
   xmlns:rdf="http://www.w3.org/1999/02/22-rdf-syntax-ns#"
   xmlns:svg="http://www.w3.org/2000/svg"
   xmlns="http://www.w3.org/2000/svg"
   xmlns:xlink="http://www.w3.org/1999/xlink"
   xmlns:sodipodi="http://sodipodi.sourceforge.net/DTD/sodipodi-0.dtd"
   xmlns:inkscape="http://www.inkscape.org/namespaces/inkscape"
   width="210mm"
   height="297mm"
   viewBox="0 0 744.09448819 1052.3622047"
   id="svg2"
   version="1.1"
   inkscape:version="0.91 r13725"
   sodipodi:docname="template.svg">
  <sodipodi:namedview
     id="base"
     pagecolor="#ffffff"
     bordercolor="#666666"
     borderopacity="1.0"
     inkscape:pageopacity="0.0"
     inkscape:pageshadow="2"
     inkscape:zoom="0.7"
     inkscape:cx="372.5807"
     inkscape:cy="499.36736"
     inkscape:document-units="mm"
     inkscape:current-layer="layer1"
     showgrid="false"
     inkscape:snap-bbox="true"
     inkscape:bbox-paths="true"
     inkscape:bbox-nodes="true"
     inkscape:snap-bbox-edge-midpoints="true"
     inkscape:snap-bbox-midpoints="true"
     inkscape:object-paths="true"
     inkscape:snap-intersection-paths="true"
     inkscape:object-nodes="true"
     inkscape:snap-smooth-nodes="true"
     inkscape:snap-midpoints="true"
     inkscape:snap-object-midpoints="true"
     inkscape:snap-center="true"
     inkscape:snap-text-baseline="true"
     inkscape:window-width="1076"
     inkscape:window-height="1015"
     inkscape:window-x="0"
     inkscape:window-y="0"
     inkscape:window-maximized="0" />
  <defs
     id="defs4" />
  <metadata
     id="metadata7">
    <rdf:RDF>
      <cc:Work
         rdf:about="">
        <dc:format>image/svg+xml</dc:format>
        <dc:type
           rdf:resource="http://purl.org/dc/dcmitype/StillImage" />
        <dc:title />
      </cc:Work>
    </rdf:RDF>
  </metadata>
  <g
     id="layer1"
     inkscape:groupmode="layer"
     inkscape:label="Layer 1">
    <text
       xml:space="preserve"
       style="font-style:normal;font-weight:normal;font-size:17.59811783px;line-height:125%;font-family:sans-serif;text-align:end;letter-spacing:0px;word-spacing:0px;text-anchor:end;fill:#000000;fill-opacity:1;stroke:none;stroke-width:1px;stroke-linecap:butt;stroke-linejoin:miter;stroke-opacity:1"
       x="698.77374"
       y="57.208214"
       id="text4204"
       sodipodi:linespacing="125%"><tspan
         sodipodi:role="line"
         id="tspan4206"
         x="698.77374"
         y="57.208214"
         style="font-size:17.59811783px">$eventlist1$</tspan></text>
    <image
       sodipodi:absref="/home/mattias/arendus/fusiongame/spotter_irl/spotter_printer/test.png"
       xlink:href="test.png"
       y="160.32578"
       x="16.044792"
       id="image3362"
       preserveAspectRatio="none"
       height="294.19901"
       width="294.19901" />
    <g
       id="spotted"
       transform="translate(-30.864492,48.266961)">
      <rect
         style="color:#000000;clip-rule:nonzero;display:inline;overflow:visible;visibility:visible;opacity:1;isolation:auto;mix-blend-mode:normal;color-interpolation:sRGB;color-interpolation-filters:linearRGB;solid-color:#000000;solid-opacity:1;fill:#ffffff;fill-opacity:1;fill-rule:nonzero;stroke:none;stroke-width:17.94081306;stroke-linecap:butt;stroke-linejoin:miter;stroke-miterlimit:4;stroke-dasharray:none;stroke-dashoffset:0;stroke-opacity:1;color-rendering:auto;image-rendering:auto;shape-rendering:auto;text-rendering:auto;enable-background:accumulate"
         id="rect4206"
         width="72.14286"
         height="23.928572"
         x="560.25586"
         y="-106.22131" />
      <path
         id="path5011"
         style="fill:#000000"
         d="m 595.93563,-102.30794 c 0,-0.62041 -0.16921,-1.12802 -0.37601,-1.12802 -0.20681,0 -0.37601,0.50761 -0.37601,1.12802 0,0.62043 0.1692,1.12804 0.37601,1.12804 0.2068,0 0.37601,-0.50761 0.37601,-1.12804 z m -3.96497,3.802094 c -0.54975,-0.83074 -1.22195,-2.152964 -1.49377,-2.938264 -0.4869,-1.40669 -0.47954,-1.42972 0.49601,-1.55471 0.5446,-0.0698 1.5515,-0.6197 2.23753,-1.22204 1.39399,-1.22394 1.62779,-1.29015 2.27399,-0.64395 0.35094,0.35095 0.45121,0.35095 0.45121,0 0,-0.80194 1.07245,-0.48021 2.25607,0.67682 0.67755,0.66232 1.55354,1.12804 2.12179,1.12804 0.86596,0 0.94141,0.10886 0.7169,1.03403 -0.276,1.13743 -2.48135,4.982151 -2.85778,4.982151 -0.12991,0 -0.42895,-0.423017 -0.66452,-0.940028 -0.23557,-0.517016 -0.68574,-0.940029 -1.00038,-0.940029 -0.31464,0 -0.57208,-0.29603 -0.57208,-0.65786 0,-0.463454 -0.43816,-0.17851 -1.4827,0.96421 l -1.48271,1.622063 -0.99956,-1.510433 z m -0.35105,4.905065 c -0.3307,-2.40446 -2.18472,-5.477285 -4.15449,-6.885559 -0.89821,-0.64217 -2.49194,-1.28206 -3.91728,-1.5728 l -2.40298,-0.49017 1.28521,-0.96295 c 4.18052,-3.1323 6.20448,-2.82159 7.34684,1.12786 0.34117,1.1795 1.11444,2.865514 1.71838,3.746734 1.87971,2.742664 2.23582,3.917385 1.57546,5.196934 -0.94718,1.835317 -1.18025,1.809609 -1.45114,-0.160049 z m 7.0421,0.784302 c -0.46531,-0.830283 -0.84603,-1.756434 -0.84603,-2.058128 0,-0.301695 0.67125,-1.587077 1.49166,-2.856414 0.82042,-1.269345 1.75576,-3.216369 2.07856,-4.326739 1.16339,-4.00191 3.0475,-4.51054 6.90265,-1.86344 l 2.01261,1.38194 -2.25005,0.45896 c -2.91837,0.5953 -4.15181,1.25842 -5.86233,3.151784 -1.66358,1.841387 -2.12539,2.899807 -2.44304,5.599215 l -0.238,2.022427 -0.84603,-1.509605 z m 14.59509,5.658553 c 3.21087,-2.701766 3.35701,-7.036971 0.34219,-10.150687 -0.86725,-0.895694 -1.03592,-1.207523 -0.5014,-0.92694 1.27981,0.67181 2.71171,2.59952 3.15572,4.248428 0.68995,2.562303 -0.24414,5.245191 -2.39824,6.888208 -1.67395,1.276784 -2.13208,1.231598 -0.59827,-0.059 z m -0.8586,1.938556 c 3.00629,-1.255802 4.70579,-3.749002 4.7281,-6.936259 0.0534,-7.627177 -9.59751,-10.660681 -13.94729,-4.383941 -0.90145,1.300794 -1.0392,1.860873 -1.0392,4.225397 0,2.422136 0.12569,2.904288 1.12804,4.327417 2.09424,2.973376 5.88596,4.122643 9.13035,2.767386 z m -4.99423,2.112422 c -2.72251,-0.662792 -5.18313,-2.642887 -6.42226,-5.168077 -1.02076,-2.080201 -0.96423,-6.199383 0.11309,-8.240333 1.70464,-3.229398 4.77871,-5.045692 8.51715,-5.032302 5.34714,0.0192 9.23763,3.890991 9.24843,9.204025 0.0126,6.176634 -5.56255,10.671536 -11.45641,9.236687 z m -29.77629,-3.813483 c -1.47952,-0.947716 -2.75141,-3.476228 -2.74042,-5.447915 0.011,-1.976109 1.14819,-4.376704 2.54406,-5.370646 1.45948,-1.039244 1.99951,-1.056044 0.684,-0.02122 -3.25664,2.561677 -3.23489,8.372848 0.0405,10.815814 1.34624,1.004105 1.02476,1.018713 -0.52812,0.02401 z m 7.21886,1.583772 c 5.41895,-2.461777 6.15089,-9.43246 1.3749,-13.093933 -5.18397,-3.974268 -12.64579,0.404707 -12.00759,7.046643 0.48487,5.046145 5.96972,8.165625 10.63269,6.04729 z m -5.45783,2.229984 c -3.79592,-1.154664 -6.56407,-4.414718 -7.02044,-8.267974 -0.43634,-3.684347 1.91081,-7.782157 5.39579,-9.420291 1.44464,-0.67906 2.28095,-0.81015 4.46503,-0.69985 3.41531,0.17246 5.8148,1.529964 7.488,4.236334 1.56089,2.524665 1.80391,6.359728 0.56944,8.985976 -1.85652,3.949558 -6.95347,6.365622 -10.89782,5.165805 z"
         inkscape:connector-curvature="0" />
    </g>
    <g
       id="touched"
       transform="translate(-30.864492,-11.393489)"
       style="fill:#ffffff">
      <path
         id="rect4208"
         style="color:#000000;clip-rule:nonzero;display:inline;overflow:visible;visibility:visible;opacity:1;isolation:auto;mix-blend-mode:normal;color-interpolation:sRGB;color-interpolation-filters:linearRGB;solid-color:#000000;solid-opacity:1;fill:#ffffff;fill-opacity:1;fill-rule:nonzero;stroke:none;stroke-width:17.94081306;stroke-linecap:butt;stroke-linejoin:miter;stroke-miterlimit:4;stroke-dasharray:none;stroke-dashoffset:0;stroke-opacity:1;color-rendering:auto;image-rendering:auto;shape-rendering:auto;text-rendering:auto;enable-background:accumulate"
         d="m 560.25586,-46.560863 72.14286,0 0,23.928571 -72.14286,0 z" />
      <path
         style="fill:#000000"
         d="m 596.85214,-23.207764 c 0,-0.03871 -0.095,-0.07034 -0.21102,-0.07034 -0.11606,0 -0.21102,-0.03167 -0.21102,-0.07034 0,-0.03871 -0.095,-0.07034 -0.21102,-0.07034 -0.11606,0 -0.21102,-0.03167 -0.21102,-0.07034 0,-0.03871 -0.0633,-0.07034 -0.14068,-0.07034 -0.0774,0 -0.14069,-0.03167 -0.14069,-0.07034 0,-0.03871 -0.0949,-0.07034 -0.21101,-0.07034 -0.11607,0 -0.21103,-0.03167 -0.21103,-0.07034 0,-0.03871 -0.0633,-0.07034 -0.14068,-0.07034 -0.0774,0 -0.14068,-0.03167 -0.14068,-0.07034 0,-0.03871 -0.095,-0.07034 -0.21102,-0.07034 -0.11607,0 -0.21102,-0.03167 -0.21102,-0.07034 0,-0.03871 -0.10892,-0.07034 -0.24204,-0.07034 -0.13313,0 -0.26161,-0.03167 -0.28552,-0.07034 -0.0239,-0.03871 -0.18217,-0.07034 -0.3517,-0.07034 -0.16952,0 -0.32779,-0.03167 -0.3517,-0.07034 -0.0239,-0.03871 -0.15052,-0.07034 -0.28136,-0.07034 -0.13084,0 -0.25745,-0.03167 -0.28137,-0.07034 -0.0238,-0.03871 -0.15052,-0.07034 -0.28136,-0.07034 -0.13083,0 -0.25745,-0.03167 -0.28136,-0.07034 -0.0239,-0.03871 -0.11887,-0.07035 -0.21102,-0.07035 -0.0921,0 -0.18711,-0.03167 -0.21102,-0.07034 -0.0239,-0.03871 -0.11887,-0.07034 -0.21102,-0.07034 -0.0922,0 -0.18712,-0.03167 -0.21103,-0.07034 -0.0239,-0.0387 -0.12073,-0.07034 -0.21517,-0.07034 -0.0944,0 -0.1717,-0.03167 -0.1717,-0.07034 0,-0.03871 -0.0931,-0.07034 -0.20687,-0.07034 -0.11378,0 -0.22643,-0.03167 -0.25034,-0.07034 -0.0239,-0.03871 -0.11887,-0.07034 -0.21102,-0.07034 -0.0922,0 -0.18712,-0.03167 -0.21102,-0.07034 -0.0239,-0.03871 -0.11887,-0.07034 -0.21103,-0.07034 -0.0921,0 -0.18711,-0.03167 -0.21102,-0.07034 -0.0239,-0.03871 -0.0986,-0.07034 -0.16598,-0.07034 -0.15389,0 -0.50097,-0.158149 -0.50171,-0.228608 -2.8e-4,-0.029 -0.0955,-0.05278 -0.21156,-0.05278 -0.11607,0 -0.21103,-0.03167 -0.21103,-0.07034 0,-0.03871 -0.095,-0.07034 -0.21102,-0.07034 -0.11606,0 -0.21102,-0.03167 -0.21102,-0.07034 0,-0.03871 -0.063,-0.07034 -0.14008,-0.07034 -0.077,0 -0.17963,-0.0633 -0.22795,-0.140679 -0.0483,-0.07737 -0.13727,-0.140684 -0.19765,-0.140684 -0.0604,0 -0.25636,-0.142438 -0.43548,-0.316533 -0.17911,-0.17409 -0.37531,-0.316529 -0.43599,-0.316529 -0.0607,0 -0.11033,-0.0435 -0.11033,-0.09672 0,-0.05321 -0.095,-0.115706 -0.21104,-0.138919 -0.12367,-0.02474 -0.21101,-0.08657 -0.21101,-0.149395 0,-0.05896 -0.12662,-0.237656 -0.28137,-0.397112 -0.26855,-0.276729 -0.28136,-0.310349 -0.28136,-0.73866 0,-0.252258 -0.0308,-0.448729 -0.0703,-0.448729 -0.10231,0 -0.0864,-0.403808 0.0176,-0.445995 0.0664,-0.02692 0.062,-0.05554 -0.0176,-0.11673 -0.0797,-0.06119 -0.084,-0.08979 -0.0176,-0.116725 0.10907,-0.04425 0.12605,-1.290082 0.0176,-1.290082 -0.0387,0 -0.0704,-0.08139 -0.0704,-0.180877 0,-0.09948 -0.0475,-0.228358 -0.10552,-0.28639 -0.058,-0.05802 -0.10551,-0.166551 -0.10551,-0.241163 0,-0.07461 -0.0475,-0.135657 -0.10551,-0.135657 -0.0762,0 -0.10551,-0.07816 -0.10551,-0.281362 0,-0.154748 -0.0317,-0.281363 -0.0704,-0.281363 -0.0387,0 -0.0703,-0.110785 -0.0703,-0.246191 0,-0.135406 0.0317,-0.246191 0.0703,-0.246191 0.0387,0 0.0704,-0.0475 0.0704,-0.105513 0,-0.05803 -0.0317,-0.105508 -0.0704,-0.105508 -0.0387,0 -0.0703,-0.142443 -0.0703,-0.316533 0,-0.174096 0.0317,-0.316534 0.0703,-0.316534 0.0387,0 0.0704,-0.0475 0.0704,-0.105513 0,-0.05802 -0.0317,-0.105507 -0.0704,-0.105507 -0.0397,0 -0.0703,-0.199297 -0.0703,-0.457217 0,-0.257915 0.0307,-0.457213 0.0703,-0.457213 0.0387,0 0.0704,-0.09157 0.0704,-0.203492 0,-0.112545 0.0454,-0.220931 0.10163,-0.242496 0.0559,-0.02143 0.12272,-0.151448 0.14851,-0.288891 0.0258,-0.137437 0.075,-0.249886 0.10939,-0.249886 0.0344,0 0.0625,-0.09496 0.0625,-0.21102 0,-0.116064 0.0317,-0.211021 0.0704,-0.211021 0.0387,0 0.0704,-0.05632 0.0704,-0.125153 0,-0.06883 0.0633,-0.170785 0.14069,-0.226552 0.0774,-0.05577 0.14067,-0.1424 0.14067,-0.192515 0,-0.05011 0.23689,-0.328006 0.52642,-0.617536 0.28954,-0.28953 0.56743,-0.526419 0.61754,-0.526419 0.0502,0 0.13675,-0.0633 0.19251,-0.140683 0.0558,-0.07737 0.15073,-0.140679 0.21103,-0.140679 0.0603,0 0.15525,-0.0633 0.21102,-0.140678 0.0557,-0.07738 0.15073,-0.140684 0.21102,-0.140684 0.0603,0 0.15525,-0.0633 0.21102,-0.140679 0.0557,-0.07738 0.15772,-0.140683 0.22655,-0.140683 0.0688,0 0.12515,-0.03167 0.12515,-0.07034 0,-0.03871 0.0633,-0.07034 0.14068,-0.07034 0.0774,0 0.14069,-0.03167 0.14069,-0.07034 0,-0.03871 0.0633,-0.07034 0.14067,-0.07034 0.0774,0 0.14069,-0.03167 0.14069,-0.07034 0,-0.03871 0.0633,-0.07034 0.14068,-0.07034 0.0774,0 0.14067,-0.03167 0.14067,-0.07035 0,-0.03871 0.0633,-0.07034 0.14069,-0.07034 0.0774,0 0.14068,-0.03167 0.14068,-0.07034 0,-0.03871 0.0633,-0.07035 0.14068,-0.07035 0.0774,0 0.14068,-0.03167 0.14068,-0.07034 0,-0.03871 0.0633,-0.07034 0.14069,-0.07034 0.0774,0 0.14067,-0.03167 0.14067,-0.07034 0,-0.03871 0.0633,-0.07034 0.14069,-0.07034 0.0774,0 0.14068,-0.03167 0.14068,-0.07034 0,-0.03871 0.0633,-0.07034 0.14068,-0.07034 0.0774,0 0.14068,-0.03167 0.14068,-0.07034 0,-0.03871 0.095,-0.07034 0.21102,-0.07034 0.11606,0 0.21103,-0.03167 0.21103,-0.07034 0,-0.03871 0.0633,-0.07034 0.14067,-0.07034 0.0774,0 0.14068,-0.03167 0.14068,-0.07034 0,-0.03871 0.0633,-0.07034 0.14069,-0.07034 0.0774,0 0.14068,-0.03167 0.14068,-0.07034 0,-0.03871 0.095,-0.07035 0.21102,-0.07035 0.11605,0 0.21102,-0.03167 0.21102,-0.07034 0,-0.03871 0.0563,-0.07034 0.12516,-0.07034 0.0688,0 0.17077,-0.0633 0.22654,-0.140679 0.0558,-0.07738 0.14295,-0.140684 0.19372,-0.140684 0.11215,0 0.58003,-0.456481 0.58003,-0.565891 0,-0.04302 0.12127,-0.194718 0.26949,-0.337129 0.14821,-0.142406 0.29126,-0.345675 0.31787,-0.451699 0.0266,-0.106025 0.0842,-0.192772 0.12786,-0.192772 0.11206,0 0.55091,-0.465118 0.55091,-0.58389 0,-0.05416 0.095,-0.171248 0.21101,-0.260197 0.11607,-0.08895 0.21103,-0.203881 0.21103,-0.255409 0,-0.05155 0.20574,-0.299431 0.45721,-0.5509 0.25147,-0.251469 0.45722,-0.491109 0.45722,-0.532538 0,-0.09994 1.16892,-1.263751 1.2693,-1.263751 0.043,0 0.19984,-0.126614 0.34853,-0.281362 0.14868,-0.154749 0.32029,-0.281363 0.38136,-0.281363 0.061,0 0.11103,-0.03167 0.11103,-0.07034 0,-0.0402 0.21101,-0.07034 0.49238,-0.07034 0.28136,0 0.49237,0.03012 0.49237,0.07034 0,0.03871 0.0633,0.07034 0.14069,0.07034 0.0938,0 0.14068,0.04692 0.14068,0.140684 0,0.07737 0.0317,0.140679 0.0704,0.140679 0.0397,0 0.0703,0.199297 0.0703,0.457212 0,0.257915 -0.0307,0.457216 -0.0703,0.457216 -0.0387,0 -0.0704,0.09228 -0.0704,0.205055 0,0.136691 -0.0704,0.271468 -0.21102,0.404235 -0.11606,0.109543 -0.21102,0.25253 -0.21102,0.317754 0,0.06522 -0.0633,0.138674 -0.14068,0.16323 -0.0774,0.02458 -0.14069,0.07418 -0.14069,0.110253 0,0.03609 -0.0479,0.0656 -0.10651,0.0656 -0.13411,0 -1.30029,1.15908 -1.30029,1.292375 0,0.05423 -0.0947,0.17338 -0.21039,0.264782 -0.11571,0.0914 -0.21067,0.214592 -0.21102,0.273754 -3.5e-4,0.05916 -0.0639,0.153197 -0.14132,0.208963 -0.0774,0.05577 -0.14068,0.150728 -0.14068,0.21102 0,0.06029 -0.0633,0.155255 -0.14068,0.211021 -0.0774,0.05577 -0.14068,0.157717 -0.14068,0.22655 0,0.06883 -0.0317,0.125154 -0.0703,0.125154 -0.0387,0 -0.0704,0.06331 -0.0704,0.140683 0,0.07738 -0.0317,0.140679 -0.0703,0.140679 -0.0387,0 -0.0704,0.05632 -0.0704,0.125154 0,0.06883 -0.0633,0.170779 -0.14069,0.226551 -0.0774,0.05577 -0.14068,0.157712 -0.14068,0.22655 0,0.06883 -0.0317,0.125149 -0.0704,0.125149 -0.0387,0 -0.0703,0.06331 -0.0703,0.140683 0,0.07738 -0.0317,0.140679 -0.0704,0.140679 -0.0387,0 -0.0703,0.126615 -0.0703,0.281362 0,0.265732 0.0118,0.281363 0.21102,0.281363 0.11607,0 0.21102,-0.03167 0.21102,-0.07034 0,-0.03871 0.0563,-0.07035 0.12515,-0.07035 0.0688,0 0.17079,-0.06331 0.22656,-0.140684 0.0557,-0.07737 0.14501,-0.140679 0.19832,-0.140679 0.0533,0 0.18564,-0.09496 0.29406,-0.21102 0.10842,-0.116064 0.24417,-0.211026 0.30167,-0.211026 0.0575,0 0.17932,-0.09467 0.27072,-0.21038 0.0914,-0.115712 0.21459,-0.210669 0.27376,-0.211021 0.0592,-3.52e-4 0.15319,-0.06395 0.20896,-0.141318 0.0558,-0.07738 0.15073,-0.140684 0.21102,-0.140684 0.0602,0 0.15525,-0.0633 0.21102,-0.140679 0.0558,-0.07737 0.15772,-0.140684 0.22655,-0.140684 0.0688,0 0.12516,-0.03167 0.12516,-0.07034 0,-0.03871 0.0633,-0.07034 0.14067,-0.07034 0.0774,0 0.14069,-0.03167 0.14069,-0.07034 0,-0.03871 0.0563,-0.07034 0.12515,-0.07034 0.0688,0 0.17078,-0.0633 0.22655,-0.140679 0.0557,-0.07737 0.15772,-0.140684 0.22655,-0.140684 0.0688,0 0.12515,-0.03167 0.12515,-0.07034 0,-0.03871 0.0633,-0.07034 0.14068,-0.07034 0.0774,0 0.14068,-0.02815 0.14068,-0.06251 0,-0.03439 0.10688,-0.08256 0.23752,-0.10707 0.13276,-0.0249 0.29522,-0.121416 0.36839,-0.218847 0.072,-0.09586 0.18642,-0.174293 0.25428,-0.174293 0.0679,0 0.16292,-0.0633 0.21125,-0.140683 0.0483,-0.07737 0.12945,-0.140679 0.1803,-0.140679 0.15095,0 0.7178,-0.279134 0.7178,-0.353459 0,-0.03775 0.0538,-0.06858 0.1196,-0.06858 0.13653,0 1.73217,-0.775707 1.76787,-0.859436 0.0129,-0.03023 0.11577,-0.05499 0.2286,-0.05499 0.11284,0 0.20516,-0.03167 0.20516,-0.07034 0,-0.03871 0.0931,-0.07034 0.20687,-0.07034 0.11379,0 0.22644,0.03167 0.25034,0.07034 0.0239,0.03871 0.11453,0.07034 0.20139,0.07034 0.15707,0 0.49,0.309848 0.66029,0.614524 0.10539,0.188565 0.11586,0.555693 0.0176,0.616433 -0.0387,0.02389 -0.0704,0.104841 -0.0704,0.179843 0,0.15897 -0.3713,0.55646 -0.65064,0.696531 -0.10639,0.05335 -0.19345,0.123303 -0.19345,0.155451 0,0.03215 -0.0415,0.05845 -0.0922,0.05845 -0.0507,0 -0.15361,0.05643 -0.2286,0.125398 -0.075,0.06896 -0.25372,0.1806 -0.39715,0.248074 -0.14344,0.06747 -0.27858,0.151458 -0.30032,0.186629 -0.0218,0.03518 -0.22091,0.151864 -0.44261,0.259312 -0.22169,0.107443 -0.41365,0.22026 -0.42654,0.250697 -0.0129,0.03044 -0.0978,0.05534 -0.18869,0.05534 -0.10349,0 -0.18194,0.05262 -0.2099,0.140678 -0.0246,0.07738 -0.10397,0.140685 -0.17645,0.140685 -0.0725,0 -0.15135,0.03167 -0.17526,0.07034 -0.0239,0.03871 -0.10278,0.07034 -0.17526,0.07034 -0.0725,0 -0.15189,0.06331 -0.17644,0.140683 -0.0285,0.08989 -0.10642,0.140679 -0.21577,0.140679 -0.0941,0 -0.17111,0.02831 -0.17111,0.0629 0,0.0958 -0.39683,0.49982 -0.49094,0.49982 -0.0456,0 -0.20446,0.126615 -0.35315,0.281363 -0.14868,0.154748 -0.30694,0.281362 -0.35169,0.281362 -0.0448,0 -0.20303,0.126615 -0.35171,0.281363 -0.14868,0.154747 -0.32002,0.281362 -0.38076,0.281362 -0.0607,0 -0.14996,0.0633 -0.19829,0.140678 -0.0483,0.07738 -0.1283,0.140684 -0.17774,0.140684 -0.0841,0 -1.00172,0.868687 -1.00172,0.948294 0,0.02005 0.12661,0.03647 0.28136,0.03647 0.15475,0 0.28137,-0.03167 0.28137,-0.07035 0,-0.0387 0.095,-0.07034 0.21102,-0.07034 0.11606,0 0.21102,-0.03167 0.21102,-0.07034 0,-0.03871 0.095,-0.07035 0.21102,-0.07035 0.11606,0 0.21102,-0.03167 0.21102,-0.07034 0,-0.03871 0.0633,-0.07034 0.14068,-0.07034 0.0774,0 0.14068,-0.03167 0.14068,-0.07034 0,-0.03871 0.095,-0.07034 0.21103,-0.07034 0.11606,0 0.21102,-0.03167 0.21102,-0.07034 0,-0.03871 0.0633,-0.07034 0.14068,-0.07034 0.0774,0 0.14068,-0.03167 0.14068,-0.07034 0,-0.03871 0.095,-0.07034 0.21102,-0.07034 0.11606,0 0.21102,-0.03167 0.21102,-0.07034 0,-0.03871 0.095,-0.07034 0.21102,-0.07034 0.11606,0 0.21102,-0.03167 0.21102,-0.07034 0,-0.03871 0.095,-0.07034 0.21103,-0.07034 0.11605,0 0.21101,-0.03167 0.21101,-0.07034 0,-0.03871 0.12662,-0.07034 0.28137,-0.07034 0.15475,0 0.28136,-0.03167 0.28136,-0.07034 0,-0.03871 0.12662,-0.07034 0.28136,-0.07034 0.15475,0 0.28137,-0.03167 0.28137,-0.07034 0,-0.03871 0.14057,-0.07034 0.31238,-0.07034 0.17181,0 0.33194,-0.03167 0.35585,-0.07035 0.0239,-0.0387 0.19987,-0.07034 0.39102,-0.07034 0.19116,0 0.34755,-0.03167 0.34755,-0.07034 0,-0.03871 0.11079,-0.07035 0.2462,-0.07035 0.1354,0 0.24618,-0.03167 0.24618,-0.07034 0,-0.03871 0.095,-0.07034 0.21104,-0.07034 0.11605,0 0.21101,-0.03167 0.21101,-0.07034 0,-0.03871 0.12662,-0.07034 0.28136,-0.07034 0.15475,0 0.28137,-0.03167 0.28137,-0.07034 0,-0.03871 0.0633,-0.07034 0.14068,-0.07034 0.0774,0 0.14068,-0.03167 0.14068,-0.07034 0,-0.03871 0.095,-0.07034 0.21102,-0.07034 0.11607,0 0.21102,-0.03167 0.21102,-0.07034 0,-0.03871 0.095,-0.07034 0.21102,-0.07034 0.11607,0 0.21102,-0.03167 0.21102,-0.07034 0,-0.03871 0.12662,-0.07034 0.28137,-0.07034 0.15475,0 0.28136,-0.03167 0.28136,-0.07034 0,-0.03871 0.12661,-0.07034 0.28136,-0.07034 0.15475,0 0.28136,-0.03167 0.28136,-0.07034 0,-0.03908 0.18758,-0.07035 0.42205,-0.07035 0.23446,0 0.42204,0.03124 0.42204,0.07035 0,0.03871 0.0461,0.07034 0.10231,0.07034 0.13256,0 0.46041,0.327857 0.46041,0.46041 0,0.05628 0.0317,0.102314 0.0704,0.102314 0.039,0 0.0703,0.187573 0.0703,0.422041 0,0.234468 -0.0312,0.422047 -0.0703,0.422047 -0.0387,0 -0.0704,0.07641 -0.0704,0.169809 0,0.18141 -0.42478,0.674272 -0.58112,0.674272 -0.0502,0 -0.13685,0.06331 -0.19262,0.140684 -0.0595,0.08261 -0.1821,0.140679 -0.2969,0.140679 -0.10751,0 -0.19549,0.03167 -0.19549,0.07035 0,0.03871 -0.0949,0.07034 -0.21102,0.07034 -0.11606,0 -0.21102,0.03167 -0.21102,0.07034 0,0.03871 -0.095,0.07035 -0.21102,0.07035 -0.11606,0 -0.21102,0.03167 -0.21102,0.07034 0,0.03871 -0.12661,0.07034 -0.28136,0.07034 -0.15475,0 -0.28137,0.03167 -0.28137,0.07034 0,0.03871 -0.12661,0.07034 -0.28136,0.07034 -0.15475,0 -0.28136,0.0297 -0.28136,0.06603 0,0.03631 -0.14496,0.08777 -0.32213,0.114336 -0.17717,0.02655 -0.33881,0.09182 -0.35922,0.144991 -0.0204,0.05321 -0.097,0.09669 -0.17026,0.09669 -0.0732,0 -0.13316,0.02799 -0.13316,0.06224 0,0.03423 -0.17605,0.08423 -0.39123,0.111116 -0.22446,0.02804 -0.40671,0.08923 -0.42755,0.143536 -0.02,0.05208 -0.16154,0.115808 -0.31457,0.141659 -0.30996,0.05236 -0.6955,0.22493 -0.6955,0.311288 0,0.03087 -0.15462,0.07664 -0.3436,0.101706 -0.35492,0.04708 -0.78185,0.221891 -0.78185,0.320138 0,0.03076 -0.13384,0.07388 -0.29744,0.09582 -0.16358,0.02197 -0.30866,0.07359 -0.32238,0.114773 -0.0138,0.04116 -0.11729,0.07488 -0.23013,0.07488 -0.11283,0 -0.20515,0.03167 -0.20515,0.07034 0,0.03871 -0.0633,0.07034 -0.14069,0.07034 -0.0774,0 -0.14068,0.03167 -0.14068,0.07034 0,0.03871 -0.095,0.07034 -0.21102,0.07034 -0.11606,0 -0.21102,0.03167 -0.21102,0.07035 0,0.0387 -0.0633,0.07034 -0.14068,0.07034 -0.0774,0 -0.14068,0.03167 -0.14068,0.07034 0,0.03871 -0.0497,0.07035 -0.11054,0.07035 -0.15407,0 -0.37433,0.225249 -0.25813,0.263987 0.048,0.016 0.0873,0.105593 0.0873,0.199089 0,0.166333 0.0128,0.169985 0.59374,0.169985 0.32655,0 0.61331,-0.03167 0.63721,-0.07034 0.0276,-0.04468 0.92689,-0.07034 2.46607,-0.07034 1.99092,0 2.4226,-0.01701 2.4226,-0.09528 0,-0.07294 0.2197,-0.106675 0.93733,-0.143893 1.10554,-0.05734 1.87629,0.0016 1.87629,0.143376 0,0.05267 0.0569,0.0958 0.12661,0.0958 0.16206,0 0.29543,0.133375 0.29543,0.295432 0,0.06964 0.0317,0.126609 0.0704,0.126609 0.0387,0 0.0703,0.0475 0.0703,0.105513 0,0.05803 0.0317,0.105513 0.0704,0.105513 0.0387,0 0.0703,0.09496 0.0703,0.211021 0,0.116058 -0.0317,0.21102 -0.0703,0.21102 -0.0387,0 -0.0704,0.08019 -0.0704,0.178195 0,0.198146 -0.41833,0.665892 -0.59554,0.665892 -0.0593,0 -0.10786,0.03167 -0.10786,0.07034 0,0.03871 -0.095,0.07034 -0.21102,0.07034 -0.11606,0 -0.21102,0.03167 -0.21102,0.07034 0,0.03871 -0.15827,0.07034 -0.35171,0.07034 -0.19343,0 -0.35169,0.03167 -0.35169,0.07034 0,0.04105 -0.23448,0.07034 -0.56273,0.07034 -0.32826,0 -0.56273,0.02932 -0.56273,0.07035 0,0.04169 -0.25791,0.07034 -0.63306,0.07034 -0.37515,0 -0.63307,0.02868 -0.63307,0.07034 0,0.03908 -0.18757,0.07034 -0.42204,0.07034 -0.23446,0 -0.42205,0.03124 -0.42205,0.07034 0,0.03871 -0.12661,0.07034 -0.28136,0.07034 -0.15474,0 -0.28135,0.03167 -0.28135,0.07034 0,0.03871 -0.14057,0.07034 -0.31239,0.07034 -0.17181,0 -0.33194,0.03167 -0.35585,0.07034 -0.0239,0.03871 -0.18405,0.07034 -0.35585,0.07034 -0.17181,0 -0.31239,0.03167 -0.31239,0.07034 0,0.03908 -0.18757,0.07034 -0.42204,0.07034 -0.23447,0 -0.42204,0.03124 -0.42204,0.07034 0,0.03908 -0.18758,0.07034 -0.42204,0.07034 -0.23448,0 -0.42204,0.03124 -0.42204,0.07034 0,0.03908 -0.18759,0.07034 -0.42205,0.07034 -0.23447,0 -0.42204,0.03124 -0.42204,0.07035 0,0.0387 -0.15827,0.07034 -0.35171,0.07034 -0.19344,0 -0.3517,0.03167 -0.3517,0.07034 0,0.03871 -0.0633,0.07034 -0.14068,0.07034 -0.0774,0 -0.14068,0.03167 -0.14068,0.07034 0,0.03871 -0.0563,0.07034 -0.12515,0.07034 -0.0688,0 -0.17078,0.06331 -0.22655,0.140684 -0.0558,0.07737 -0.15772,0.140679 -0.22656,0.140679 -0.0688,0 -0.12515,0.03167 -0.12515,0.07034 0,0.03871 -0.0563,0.07034 -0.12515,0.07034 -0.0688,0 -0.17078,0.0633 -0.22654,0.140678 -0.0558,0.07737 -0.14333,0.140684 -0.19459,0.140684 -0.12077,0 -0.43849,0.317711 -0.43849,0.438488 0,0.05123 -0.0633,0.138808 -0.14067,0.194573 -0.0774,0.05577 -0.14069,0.144373 -0.14069,0.196898 0,0.05251 -0.12661,0.217146 -0.28136,0.365827 -0.15474,0.148681 -0.28136,0.30867 -0.28136,0.355521 0,0.04686 -0.0614,0.138462 -0.13649,0.203563 -0.1346,0.116735 -0.13424,0.120979 0.0257,0.307198 0.0892,0.103855 0.19184,0.188826 0.22798,0.188826 0.1093,0 0.44434,0.172144 0.44492,0.228608 2.8e-4,0.029 0.0801,0.05278 0.17735,0.05278 0.19939,0 0.43453,0.116299 0.60445,0.298946 0.063,0.0677 0.16619,0.123095 0.22935,0.123095 0.0632,0 0.11485,0.03167 0.11485,0.07034 0,0.03871 0.12661,0.07035 0.28136,0.07035 0.15475,0 0.28137,-0.03167 0.28137,-0.07035 0,-0.04105 0.23446,-0.07034 0.56272,-0.07034 0.32825,0 0.56272,0.02932 0.56272,0.07034 0,0.03871 0.088,0.07035 0.19549,0.07035 0.1148,0 0.23735,0.05807 0.2969,0.140678 0.0557,0.07737 0.15073,0.140685 0.21101,0.140685 0.0603,0 0.15525,0.0633 0.21103,0.140678 0.0557,0.07737 0.14373,0.140682 0.19545,0.140682 0.10435,0 0.71897,0.596654 0.71897,0.69795 0,0.03524 0.0367,0.0763 0.0815,0.09124 0.0521,0.01738 0.0838,0.233049 0.0879,0.597917 0.006,0.550388 -7.2e-4,0.577231 -0.20459,0.752356 -0.15525,0.133608 -0.29004,0.181628 -0.50998,0.181692 -0.16441,4.8e-5 -0.29894,-0.03156 -0.29894,-0.07026 0,-0.03871 -0.095,-0.07034 -0.21103,-0.07034 -0.11605,0 -0.21101,-0.03167 -0.21101,-0.07034 0,-0.04265 -0.30482,-0.07034 -0.77375,-0.07034 -0.46894,0 -0.77375,0.02773 -0.77375,0.07034 0,0.03871 -0.12661,0.07034 -0.28136,0.07034 -0.15475,0 -0.28136,0.03167 -0.28136,0.07034 0,0.0402 -0.21102,0.07034 -0.49238,0.07034 -0.28137,0 -0.49239,-0.03012 -0.49239,-0.07034 z"
         id="path5129"
         inkscape:connector-curvature="0" />
    </g>
    <rect
       y="-57.954353"
       x="529.39136"
       height="23.928572"
       width="72.14286"
       id="blank"
       style="color:#000000;clip-rule:nonzero;display:inline;overflow:visible;visibility:visible;opacity:1;isolation:auto;mix-blend-mode:normal;color-interpolation:sRGB;color-interpolation-filters:linearRGB;solid-color:#000000;solid-opacity:1;fill:#f9f9f9;fill-opacity:1;fill-rule:nonzero;stroke:none;stroke-width:17.94081306;stroke-linecap:butt;stroke-linejoin:miter;stroke-miterlimit:4;stroke-dasharray:none;stroke-dashoffset:0;stroke-opacity:1;color-rendering:auto;image-rendering:auto;shape-rendering:auto;text-rendering:auto;enable-background:accumulate" />
    <g
       id="jailed"
       transform="matrix(0.5564625,0,0,0.5564625,238.81538,-7.4882305)">
      <rect
         y="-90.69104"
         x="522.18433"
         height="43.001228"
         width="129.64551"
         id="rect4208-5"
         style="color:#000000;clip-rule:nonzero;display:inline;overflow:visible;visibility:visible;opacity:1;isolation:auto;mix-blend-mode:normal;color-interpolation:sRGB;color-interpolation-filters:linearRGB;solid-color:#000000;solid-opacity:1;fill:#ffffff;fill-opacity:1;fill-rule:nonzero;stroke:none;stroke-width:17.94081306;stroke-linecap:butt;stroke-linejoin:miter;stroke-miterlimit:4;stroke-dasharray:none;stroke-dashoffset:0;stroke-opacity:1;color-rendering:auto;image-rendering:auto;shape-rendering:auto;text-rendering:auto;enable-background:accumulate" />
      <path
         id="path5117"
         style="fill:#000000"
         d="m 568.44035,-75.743535 c 0.44214,-0.618095 1.33235,-2.251974 1.28992,-2.367481 -0.0603,-0.164277 -0.84268,-0.426534 -0.96176,-0.322404 -0.0452,0.0395 -0.36199,0.547207 -0.70397,1.128185 l -0.62179,1.056332 0.15374,0.603252 0.15375,0.603246 0.28255,-0.263174 c 0.15562,-0.144499 0.33879,-0.341842 0.40755,-0.437974 z m -0.97044,1.100339 c 0.32106,-1.020872 -0.24411,-2.029356 -1.23358,-2.201192 -0.35329,-0.06135 -0.39926,-0.04441 -0.41206,0.151944 -0.008,0.121553 0.0592,0.375453 0.1491,0.564226 0.13842,0.290478 0.13573,0.313599 -0.0175,0.150451 -0.35863,-0.381719 -0.32265,-0.930448 0.12989,-1.98193 0.59492,-1.382328 1.43598,-2.383407 2.17879,-2.593343 0.42021,-0.118755 0.87367,0.06078 1.05644,0.418279 0.14721,0.288051 0.9993,0.670371 1.10325,0.495059 0.13907,-0.234525 -0.0362,-0.946413 -0.31018,-1.259718 -0.66438,-0.759794 -1.51624,-0.967086 -2.33596,-0.568432 -0.86112,0.418781 -2.18436,2.035543 -2.69343,3.290903 -0.44431,1.095669 -0.46335,1.870031 -0.0647,2.630476 0.17958,0.342558 0.97552,0.926654 1.16691,0.856337 0.17171,-0.06307 0.26658,-0.669886 0.15589,-0.996992 -0.0648,-0.19119 -0.0524,-0.192401 0.1141,-0.01101 0.44795,0.488069 0.0867,1.292631 -0.58278,1.298076 -0.47838,0.0039 -0.65302,-0.189798 -1.00258,-1.112 -0.15227,-0.401705 -0.28427,-0.74035 -0.29332,-0.752551 -0.06,-0.08074 -0.39752,0.811415 -0.42522,1.123823 -0.0665,0.750238 0.56266,1.533149 1.35121,1.681358 0.73456,0.138051 1.74054,-0.467772 1.96574,-1.183798 z m 5.43663,-3.842847 c -0.0925,-0.288374 -0.20093,-0.561726 -0.24091,-0.607445 -0.0399,-0.04571 -0.56551,-0.128014 -1.16786,-0.182867 -1.18341,-0.107758 -2.52965,-0.550412 -2.87495,-0.945304 -0.23502,-0.268772 -0.39537,-0.239249 -0.8474,0.156012 -0.30573,0.267334 -0.30587,0.272718 -0.0418,0.574745 0.14669,0.167757 0.44878,0.407627 0.67134,0.533 0.63868,0.35986 2.2695,0.771377 3.52172,0.888655 l 1.14804,0.107517 -0.16822,-0.524313 z m -5.24496,5.188252 c 0.0541,-0.11296 0.19353,-0.293018 0.30995,-0.400185 0.1537,-0.141763 0.17633,-0.23526 0.0824,-0.342667 -0.21236,-0.242864 -0.51335,-0.161218 -1.04562,0.283639 -0.36087,0.301644 -0.63076,0.444676 -0.9528,0.505099 -0.54563,0.10236 -0.65078,0.185582 -0.65649,0.519501 -0.006,0.359747 0.17575,0.528739 0.44077,0.409533 0.12341,-0.05548 0.3168,-0.102422 0.4298,-0.104266 0.113,-0.0018 0.42766,-0.128093 0.69923,-0.280556 0.56315,-0.316139 0.56056,-0.313937 0.69277,-0.590081 z m 7.90469,-5.862102 c 0.342,-0.611917 0.47333,-1.292731 0.34648,-1.796284 -0.10061,-0.399452 -0.2105,-0.568552 -0.67633,-1.040804 -0.67931,-0.688728 -1.56573,-1.144268 -3.02811,-1.556292 -1.91841,-0.540509 -3.165,-0.416881 -4.10762,0.407364 -0.5336,0.466593 -0.93668,1.141176 -0.92503,1.548082 0.005,0.177189 0.0966,0.170322 0.65175,-0.04903 0.35521,-0.140345 0.87915,-0.417304 1.16433,-0.615466 0.71653,-0.497917 1.23026,-0.551357 2.52615,-0.262759 1.72694,0.384589 2.37965,0.712842 2.78565,1.400936 0.23994,0.406646 0.25305,1.058161 0.0274,1.363653 -0.13158,0.178123 -0.13813,0.40846 -0.0262,0.91881 l 0.14934,0.681079 0.28894,-0.165895 c 0.41362,-0.237429 0.58982,-0.415826 0.82322,-0.833413 z m 2.3661,-0.305709 c -0.45297,-1.441212 -1.02601,-2.257628 -1.7939,-2.555832 -0.55755,-0.216517 -0.74109,-0.144108 -0.45733,0.180403 0.11919,0.136311 0.29393,0.473212 0.38831,0.748685 0.0944,0.275473 0.28212,0.66973 0.41721,0.876122 0.13509,0.206392 0.33222,0.65316 0.43807,0.992805 0.10585,0.339645 0.20486,0.612923 0.22002,0.607282 0.0151,-0.0058 0.21086,-0.0301 0.4349,-0.05434 0.22404,-0.02424 0.43935,-0.07207 0.4785,-0.106306 0.0392,-0.03423 -0.0174,-0.344189 -0.12578,-0.688825 z m 10.14856,-7.880047 c 0.44154,-0.491534 0.80522,-0.929964 0.80819,-0.974289 0.003,-0.04429 -0.23889,-0.09695 -0.53749,-0.116956 -0.52202,-0.03497 -0.55135,-0.02304 -0.76324,0.310753 -0.26082,0.410886 -1.13217,2.194942 -1.14174,2.337671 -0.0102,0.152447 0.74448,-0.566651 1.63428,-1.557179 z m -8.89627,10.669163 c 0.45401,-0.48744 0.23097,-1.302731 -0.45679,-1.669671 -0.55537,-0.296319 -1.55784,-0.209724 -1.99474,0.17231 -0.5993,0.524045 -0.46232,1.550067 0.22518,1.686743 0.244,0.0485 0.25162,0.03658 0.26306,-0.411854 0.014,-0.547699 0.18699,-0.73036 0.69567,-0.734496 0.50655,-0.0041 0.81983,0.354537 0.79457,0.909626 -0.0207,0.454253 0.0843,0.464756 0.47306,0.04734 z m -0.78873,0.720431 c 0.19874,-0.507043 0.21767,-1.101501 0.0415,-1.30296 -0.34851,-0.398561 -1.14627,-0.16432 -1.06898,0.313877 0.02,0.1234 -0.0389,0.397761 -0.13079,0.609625 -0.20144,0.464477 -0.63038,0.690049 -1.20419,0.63327 -0.32433,-0.03209 -0.42626,-0.107247 -0.9241,-0.681331 -0.54342,-0.626273 -0.56893,-0.682427 -0.88161,-1.918417 -0.35611,-1.40781 -0.36367,-1.808712 -0.0394,-2.092267 0.18563,-0.162323 0.1917,-0.248919 0.0406,-0.58073 -0.25881,-0.568216 -0.42176,-0.61409 -0.85029,-0.239371 -0.76216,0.666447 -0.76353,1.247526 -0.008,3.552902 0.76538,2.336562 1.2942,3.016977 2.40249,3.091227 1.09762,0.07353 2.30019,-0.561787 2.62317,-1.385825 z m 1.58079,-1.337946 c -0.17897,-1.69892 -0.19854,-1.786167 -0.39155,-1.745371 -0.0974,0.02056 -0.2793,0.146306 -0.4042,0.279323 -0.21808,0.232284 -0.21451,0.257486 0.0899,0.635839 0.26637,0.33099 0.31228,0.479801 0.28744,0.930955 -0.0222,0.402725 0.0205,0.570974 0.17072,0.672967 0.11017,0.0748 0.22979,0.110206 0.26586,0.07867 0.0361,-0.03152 0.0279,-0.415105 -0.0182,-0.852371 z m -16.16324,17.548299 c 0.0374,-0.306734 0.13615,-0.92964 0.21943,-1.384232 0.0833,-0.454582 0.12253,-0.828456 0.0873,-0.830826 -0.0875,-0.0059 -0.70325,0.956435 -0.99018,1.547359 -0.12868,0.265033 -0.19752,0.565477 -0.15295,0.667661 0.0916,0.210089 0.64845,0.677279 0.721,0.604984 0.0261,-0.02595 0.078,-0.29821 0.11545,-0.604946 z m 18.17457,-20.411494 c 0.0319,-0.477012 -0.62984,-0.657679 -0.88244,-0.240945 -0.13865,0.228706 0.0594,0.642459 0.32819,0.685724 0.24027,0.03867 0.53787,-0.200146 0.55427,-0.44476 z m -0.6506,0.555639 c -0.32848,-0.07106 -0.36131,-0.101609 -0.42332,-0.393922 -0.0932,-0.439327 0.33366,-0.895203 0.74372,-0.794299 0.37995,0.09349 0.53114,0.288471 0.50671,0.653413 -0.0272,0.405457 -0.3776,0.632052 -0.82711,0.534808 z m 3.1201,-0.908983 c 0.0335,-0.500885 -0.66997,-0.671299 -0.846,-0.204907 -0.14784,0.3917 0.39312,0.767635 0.70818,0.492141 0.0693,-0.06058 0.13128,-0.189867 0.13782,-0.287234 z m -0.55529,0.518944 c -0.33973,-0.03984 -0.5584,-0.415494 -0.43389,-0.745391 0.2175,-0.57629 1.02799,-0.506183 1.11193,0.09618 0.0509,0.365208 -0.2929,0.694374 -0.67803,0.64922 z m 2.54017,-0.570354 c -0.005,-0.231245 -0.0455,-0.463308 -0.0913,-0.515692 -0.0458,-0.05239 -0.36872,-0.07316 -0.7176,-0.04618 -0.47604,0.03683 -0.70602,-0.0074 -0.92167,-0.177114 -0.69062,-0.543616 -1.64897,-0.07553 -1.70998,0.835184 -0.0531,0.793041 1.01979,1.197673 1.66948,0.62957 0.29362,-0.256753 0.41373,-0.285439 0.9837,-0.23502 0.35707,0.0316 0.68211,0.0287 0.72229,-0.0064 0.0402,-0.03511 0.0694,-0.253077 0.0651,-0.484321 z m -0.70122,0.693281 c -0.47167,-0.03604 -0.72029,0.0047 -0.87979,0.144156 -0.54425,0.475906 -1.38151,0.447284 -1.82724,-0.06246 -0.38525,-0.440588 -0.31204,-1.262146 0.14835,-1.664723 0.42029,-0.367509 1.31771,-0.312796 1.68082,0.102468 0.10409,0.119036 0.86865,0.12115 1.35779,0.0037 0.14209,-0.03411 0.28389,-0.03282 0.31509,0.0029 0.0954,0.109149 0.0587,1.352538 -0.0426,1.441098 -0.0522,0.0457 -0.39087,0.06046 -0.75249,0.03283 z m -3.7995,4.007082 c 0.0299,-0.445717 -0.41042,-0.673128 -0.74196,-0.383227 -0.33153,0.289901 -0.16489,0.75658 0.28083,0.786435 0.12754,0.0085 0.27997,-0.02651 0.33873,-0.07789 0.0588,-0.0514 0.11384,-0.197782 0.12239,-0.325321 z m -0.64161,0.553658 c -0.36929,-0.103099 -0.5682,-0.490739 -0.41996,-0.818445 0.26416,-0.584057 1.03997,-0.580554 1.21548,0.0055 0.15557,0.51946 -0.27408,0.958532 -0.79552,0.812956 z m 4.6363,-1.199756 c 0.13751,-0.408272 -0.42479,-0.728812 -0.76171,-0.4342 -0.34236,0.299366 -0.16608,0.75427 0.29533,0.762146 0.29611,0.0051 0.37227,-0.04849 0.46641,-0.327917 z m -0.72632,0.456647 c -0.27204,-0.117318 -0.30774,-0.168261 -0.33202,-0.473754 -0.037,-0.465545 0.30987,-0.836166 0.69416,-0.741601 0.61844,0.15218 0.7479,0.754159 0.24224,1.126323 -0.23397,0.172156 -0.36632,0.19168 -0.60437,0.08902 z m -1.43233,-0.116497 c -0.44284,-1.662817 -0.62905,-1.959929 -1.0471,-1.670724 -0.29629,0.204955 -0.31068,0.526344 -0.0376,0.838664 0.13069,0.149462 0.15597,0.514948 0.0955,1.380157 -0.0497,0.710788 -0.0262,1.241012 0.0594,1.338859 0.17764,0.203153 0.75039,0.106408 1.08088,-0.18258 0.23684,-0.207101 0.2314,-0.268572 -0.15099,-1.704376 z m -0.26712,2.174168 c -0.33981,0.08726 -0.59733,0.07755 -0.78382,-0.02951 -0.26654,-0.153042 -0.27239,-0.210608 -0.14521,-1.429408 0.10109,-0.968718 0.09,-1.324917 -0.0468,-1.501711 -0.0986,-0.127466 -0.21497,-0.281726 -0.25851,-0.342846 -0.12989,-0.182129 0.20263,-0.761219 0.4744,-0.826161 0.57126,-0.136515 0.78825,0.160317 1.13414,1.551522 0.47451,1.908489 0.50342,2.123272 0.30868,2.293557 -0.0973,0.08504 -0.40456,0.213087 -0.6829,0.284561 z m 22.10295,-6.243852 c 0.0895,-0.476501 -0.26308,-0.879765 -0.74727,-0.854573 -0.19256,0.01002 -0.4114,0.07181 -0.48632,0.137329 -0.26407,0.230899 -0.28218,0.789432 -0.0348,1.072346 0.24739,0.282915 0.80334,0.339463 1.0674,0.108564 0.0749,-0.06551 0.16536,-0.274165 0.20098,-0.463666 z m -0.48377,0.77896 c -1.16234,0.285983 -1.648,-1.402072 -0.51261,-1.781756 0.79947,-0.26736 1.48139,0.496418 1.12178,1.256394 -0.19688,0.416052 -0.20961,0.427036 -0.60917,0.5253 z m 1.34432,0.02254 c 0.41059,-0.866225 -0.32214,-3.447797 -1.5989,-5.633266 -1.67786,-2.872078 -3.62608,-4.650443 -5.92588,-5.409273 -1.88996,-0.623597 -5.04879,-0.333067 -7.25413,0.667193 -0.80061,0.363127 -1.01917,0.515509 -2.19546,1.530743 -0.71863,0.619958 -1.77521,1.592188 -2.34827,2.160162 -1.54515,1.531417 -3.8461,3.039219 -5.90902,3.87212 -1.06919,0.431683 -1.16348,0.57506 -1.22786,1.866971 -0.0896,1.798818 0.15866,4.351699 0.56529,5.81185 0.22962,0.824551 0.45936,1.20177 0.81328,1.335347 0.22316,0.08422 3.97811,0.189938 5.68436,0.160031 1.46014,-0.02559 1.90749,-0.140772 2.04289,-0.525985 0.054,-0.153594 0.0326,-0.809771 -0.0476,-1.458165 -0.19926,-1.612216 -0.22662,-2.330157 -0.1431,-3.754813 0.13279,-2.264941 0.66699,-3.898358 1.8336,-5.606611 0.74801,-1.095293 2.05878,-2.303578 3.00619,-2.77113 1.50818,-0.744292 3.04701,-0.807576 4.50248,-0.185181 1.10473,0.472419 1.73631,0.927335 2.71508,1.955657 1.51759,1.594422 2.19006,3.196744 1.9704,4.694877 -0.17058,1.163358 0.21504,1.952646 1.06404,2.177864 0.82897,0.219898 2.15489,-0.260382 2.45257,-0.888391 z m -2.97244,5.773297 c 1.12606,-1.204156 2.08536,-2.826873 2.56587,-4.34031 0.21782,-0.686067 0.19404,-0.846117 -0.089,-0.598658 -0.28688,0.250851 -1.32348,0.47609 -1.76595,0.3837 -0.22196,-0.04634 -0.57971,-0.195919 -0.795,-0.332399 -0.21528,-0.13649 -0.41496,-0.227569 -0.44373,-0.20242 -0.0288,0.02515 -0.15417,0.31722 -0.27872,0.649064 -0.38191,1.017627 -0.82463,1.626088 -1.79367,2.465158 -1.05228,0.910665 -1.73472,1.268323 -3.18789,1.668849 -1.93893,0.534416 -4.23152,0.165315 -5.65117,-0.909818 -1.12025,-0.848391 -2.10676,-2.366693 -2.5858,-3.979731 -0.22137,-0.745405 -0.2414,-0.779047 -0.3124,-0.524721 -0.16062,0.575331 -0.0786,2.446263 0.19146,4.366642 0.2609,1.855339 0.0835,2.064527 -1.86169,2.19485 l -0.42543,0.02851 0.16016,0.493951 c 0.34606,1.067308 0.57036,1.486933 1.18168,2.210742 0.78174,0.925557 0.85552,0.938644 1.32206,0.234755 0.47487,-0.716421 0.95345,-1.258009 1.242,-1.405532 0.17954,-0.09181 0.44042,-0.04169 1.02406,0.196703 2.04575,0.835581 4.26557,1.168288 5.83297,0.874255 0.42002,-0.07879 1.10647,-0.292789 1.52543,-0.475554 1.26978,-0.553906 3.09106,-1.871308 4.14472,-2.998035 z m -36.95288,3.884784 c 0.0144,-0.214959 -0.38386,-0.537743 -0.60143,-0.487483 -0.44683,0.103261 -0.49435,0.726312 -0.0677,0.887345 0.21643,0.08169 0.6544,-0.180037 0.66912,-0.399862 z m -0.52117,0.596274 c -0.32111,-0.0055 -0.60576,-0.317901 -0.59993,-0.658519 0.009,-0.535109 0.73707,-0.800632 1.08963,-0.397446 0.36822,0.421111 0.0694,1.065486 -0.48969,1.055954 z m 4.78614,-2.854926 c 0.13661,-0.405624 -0.40205,-0.748706 -0.72801,-0.463679 -0.31156,0.272432 -0.22391,0.643989 0.17841,0.756311 0.31665,0.0884 0.44411,0.02054 0.5496,-0.292632 z m -0.49078,0.499796 c -0.53689,-0.03597 -0.77227,-0.773476 -0.36152,-1.132641 0.23935,-0.209293 0.67803,-0.162225 0.90478,0.09708 0.32873,0.375941 -0.0352,1.069602 -0.54326,1.035563 z m -2.51595,4.016504 c -0.068,-0.227052 -0.13107,-0.280509 -0.36301,-0.307733 -0.48092,-0.05639 -0.7264,0.361439 -0.41893,0.713063 0.33077,0.378268 0.92447,0.07051 0.78196,-0.405351 z m -0.42414,0.779201 c -0.2811,0.03033 -0.63139,-0.248938 -0.66846,-0.532935 -0.0421,-0.322724 0.16493,-0.635009 0.4795,-0.723245 0.42245,-0.118493 0.88772,0.31354 0.7854,0.72931 -0.0873,0.354836 -0.23832,0.488229 -0.59648,0.526841 z m 3.96684,-2.863442 c 0.0176,-0.262136 -0.17793,-0.435471 -0.49725,-0.440928 -0.23353,-0.004 -0.30317,0.04058 -0.40082,0.25656 -0.20471,0.452602 0.34263,0.836807 0.7209,0.506035 0.0909,-0.07951 0.17063,-0.224282 0.17719,-0.321643 z m -0.53146,0.631429 c -0.35455,-0.02376 -0.52935,-0.202055 -0.57033,-0.581777 -0.0438,-0.405909 0.4061,-0.781517 0.80323,-0.670666 0.74582,0.208222 0.54195,1.304332 -0.23294,1.252418 z m 10.23988,16.981008 c 0.0243,-0.682036 -0.69406,-1.016494 -1.21152,-0.564015 -0.32593,0.284996 -0.34627,0.661312 -0.0538,0.995746 0.44678,0.510939 1.24138,0.239832 1.26536,-0.431731 z m -0.76255,0.860089 c -0.88756,-0.05947 -1.23021,-1.018816 -0.57007,-1.596061 0.25118,-0.219634 0.39197,-0.259978 0.72712,-0.20837 1.20203,0.185099 1.05404,1.885567 -0.15705,1.804431 z m 1.55612,-0.294744 c 0.24262,-0.607621 0.20285,-1.055734 -0.13726,-1.546247 -0.34091,-0.49174 -0.89558,-0.744595 -1.4359,-0.654665 -0.38093,0.06341 -0.59129,0.174058 -1.99417,1.049012 -0.74378,0.463897 -1.95989,0.840949 -3.04837,0.945151 -2.99084,0.286307 -5.34577,-1.172518 -6.84207,-4.238515 -0.52638,-1.078557 -0.7574,-2.191895 -0.6862,-3.30696 0.0944,-1.47872 0.58345,-2.649593 1.64079,-3.928386 0.73212,-0.88545 2.58909,-2.447314 4.08254,-3.433756 1.57656,-1.041335 1.80407,-1.230692 1.96265,-1.633424 0.23492,-0.596755 -0.20836,-1.318474 -2.53866,-4.133222 -1.8786,-2.269144 -1.90373,-2.287558 -2.76287,-2.019876 -0.89019,0.277353 -5.35795,3.189297 -5.87782,3.830984 -0.58629,0.723664 -0.61045,1.002828 -0.16889,1.951119 0.79002,1.696626 0.85627,3.105537 0.32013,6.809574 -0.61238,4.230836 -0.48307,5.994075 0.57834,7.886428 0.76191,1.358397 2.7859,3.36269 4.21427,4.173279 2.76216,1.567499 6.57868,1.424686 11.14298,-0.416977 0.88778,-0.358209 1.30406,-0.716218 1.55053,-1.333495 z m 0.81925,-0.337344 c 2.09068,-2.750758 2.89037,-7.010531 1.92674,-10.263449 -0.61146,-2.064129 -2.23891,-3.780828 -5.24434,-5.531952 l -1.25746,-0.732663 0.0449,-0.443227 c 0.0247,-0.24378 0.12961,-0.835151 0.23316,-1.314163 0.22589,-1.044911 0.129,-1.220543 -0.6805,-1.233667 -0.85447,-0.01385 -2.86659,0.587947 -2.95797,0.884685 -0.0174,0.05663 0.16511,0.375226 0.40566,0.708042 0.53619,0.741898 0.64196,1.13251 0.43551,1.608511 -0.19586,0.451594 -0.49502,0.717407 -1.55611,1.382601 -0.85487,0.535937 -3.02063,2.156 -3.33759,2.496648 -0.0985,0.105812 -0.37882,0.37505 -0.62294,0.598308 -0.24428,0.223079 -0.41647,0.437247 -0.38299,0.475543 0.0335,0.03831 0.286,-0.08402 0.56112,-0.27184 2.823,-1.92733 5.60859,-2.589372 7.5508,-1.7946 1.0062,0.411744 1.59478,0.873391 2.33929,1.834782 0.76648,0.989753 1.12117,1.69933 1.43912,2.879059 0.58333,2.164375 -0.0643,4.72079 -1.63258,6.444599 -0.45366,0.498619 -0.47228,0.536987 -0.18761,0.386316 0.44621,-0.236166 1.19764,-0.180184 1.6512,0.123009 0.72385,0.483875 0.96809,1.44245 0.56758,2.227606 -0.11269,0.220957 -0.18917,0.419742 -0.16993,0.441743 0.0575,0.06575 0.42807,-0.317982 0.87494,-0.905896 z"
         inkscape:connector-curvature="0" />
    </g>
    <use
       x="0"
       y="0"
       xlink:href="#headshot"
       id="use4250"
       transform="translate(97.00905,8.208046)"
       width="100%"
       height="100%" />
    <text
       sodipodi:linespacing="125%"
       id="text3336"
       y="1000.8072"
       x="75.310745"
       style="font-style:normal;font-variant:normal;font-weight:normal;font-stretch:normal;font-size:48.93424988px;line-height:125%;font-family:Ubuntu;-inkscape-font-specification:Ubuntu;letter-spacing:0px;word-spacing:0px;fill:#000000;fill-opacity:1;stroke:none;stroke-width:1px;stroke-linecap:butt;stroke-linejoin:miter;stroke-opacity:1"
       xml:space="preserve"><tspan
         y="1000.8072"
         x="75.310745"
         id="tspan3338"
         sodipodi:role="line">#noorteala</tspan></text>
    <text
       xml:space="preserve"
       style="font-style:normal;font-variant:normal;font-weight:normal;font-stretch:normal;font-size:48.93424988px;line-height:125%;font-family:Ubuntu;-inkscape-font-specification:Ubuntu;letter-spacing:0px;word-spacing:0px;fill:#000000;fill-opacity:1;stroke:none;stroke-width:1px;stroke-linecap:butt;stroke-linejoin:miter;stroke-opacity:1"
       x="395.44788"
       y="1000.8072"
       id="text3340"
       sodipodi:linespacing="125%"><tspan
         sodipodi:role="line"
         id="tspan3342"
         x="395.44788"
         y="1000.8072">#fusionkeila</tspan></text>
    <text
       sodipodi:linespacing="125%"
       id="text3344"
       y="817.88586"
       x="365.56006"
       style="font-style:normal;font-variant:normal;font-weight:normal;font-stretch:normal;font-size:147.94577026px;line-height:125%;font-family:Ubuntu;-inkscape-font-specification:Ubuntu;letter-spacing:0px;word-spacing:0px;fill:#000000;fill-opacity:1;stroke:none;stroke-width:1px;stroke-linecap:butt;stroke-linejoin:miter;stroke-opacity:1"
       xml:space="preserve"><tspan
         style="text-align:center;text-anchor:middle"
         y="817.88586"
         x="365.56006"
         id="tspan3346"
         sodipodi:role="line">$code$</tspan></text>
    <circle
       style="fill:none;stroke:#808080;stroke-width:14.27462673;stroke-miterlimit:4;stroke-dasharray:none;stroke-opacity:1"
       r="208.03009"
       cy="307.42526"
       cx="163.14429"
       id="path3348" />
    <text
       transform="scale(1.0000067,0.99999331)"
       xml:space="preserve"
       style="font-style:normal;font-variant:normal;font-weight:normal;font-stretch:normal;font-size:78.04043579px;line-height:125%;font-family:Ubuntu;-inkscape-font-specification:Ubuntu;letter-spacing:0px;word-spacing:0px;fill:#000000;fill-opacity:1;stroke:none;stroke-width:1px;stroke-linecap:butt;stroke-linejoin:miter;stroke-opacity:1"
       x="364.18848"
       y="915.92023"
       id="text3350"
       sodipodi:linespacing="125%"><tspan
         sodipodi:role="line"
         id="tspan3352"
         x="364.18848"
         y="915.92023"
         style="text-align:center;text-anchor:middle">$touchcode$</tspan></text>
    <flowRoot
       style="fill:black;stroke:none;stroke-opacity:1;stroke-width:1px;stroke-linejoin:miter;stroke-linecap:butt;fill-opacity:1;font-family:sans-serif;font-style:normal;font-weight:normal;font-size:40px;line-height:125%;letter-spacing:0px;word-spacing:0px"
       id="flowRoot4165"
       xml:space="preserve"><flowRegion
         id="flowRegion4167"><rect
           y="30.08783"
           x="242.43661"
           height="252.53813"
           width="48.487324"
           id="rect4169" /></flowRegion><flowPara
         id="flowPara4171" /></flowRoot>    <path
       inkscape:transform-center-y="-107.58369"
       inkscape:transform-center-x="-0.19891275"
       inkscape:connector-curvature="0"
       id="path4173"
       d="m 163.54212,9.0625946 0,85.1952644"
       style="color:#000000;clip-rule:nonzero;display:inline;overflow:visible;visibility:visible;opacity:1;isolation:auto;mix-blend-mode:normal;color-interpolation:sRGB;color-interpolation-filters:linearRGB;solid-color:#000000;solid-opacity:1;fill:none;fill-opacity:1;fill-rule:nonzero;stroke:#808080;stroke-width:14.27462769;stroke-linecap:butt;stroke-linejoin:miter;stroke-miterlimit:4;stroke-dasharray:none;stroke-dashoffset:0;stroke-opacity:1;color-rendering:auto;image-rendering:auto;shape-rendering:auto;text-rendering:auto;enable-background:accumulate" />
    <path
       style="color:#000000;clip-rule:nonzero;display:inline;overflow:visible;visibility:visible;opacity:1;isolation:auto;mix-blend-mode:normal;color-interpolation:sRGB;color-interpolation-filters:linearRGB;solid-color:#000000;solid-opacity:1;fill:none;fill-opacity:1;fill-rule:nonzero;stroke:#808080;stroke-width:14.27462578;stroke-linecap:butt;stroke-linejoin:miter;stroke-miterlimit:4;stroke-dasharray:none;stroke-dashoffset:0;stroke-opacity:1;color-rendering:auto;image-rendering:auto;shape-rendering:auto;text-rendering:auto;enable-background:accumulate"
       d="m 461.50697,307.8231 -85.19528,0"
       id="path4189"
       inkscape:connector-curvature="0"
       inkscape:transform-center-x="-107.58371"
       inkscape:transform-center-y="0.19891177" />
    <path
       inkscape:transform-center-y="107.58372"
       inkscape:transform-center-x="0.19891253"
       inkscape:connector-curvature="0"
       id="path4191"
       d="m 162.74647,605.78795 0,-85.19528"
       style="color:#000000;clip-rule:nonzero;display:inline;overflow:visible;visibility:visible;opacity:1;isolation:auto;mix-blend-mode:normal;color-interpolation:sRGB;color-interpolation-filters:linearRGB;solid-color:#000000;solid-opacity:1;fill:none;fill-opacity:1;fill-rule:nonzero;stroke:#808080;stroke-width:14.27462673;stroke-linecap:butt;stroke-linejoin:miter;stroke-miterlimit:4;stroke-dasharray:none;stroke-dashoffset:0;stroke-opacity:1;color-rendering:auto;image-rendering:auto;shape-rendering:auto;text-rendering:auto;enable-background:accumulate" />
    <path
       style="color:#000000;clip-rule:nonzero;display:inline;overflow:visible;visibility:visible;opacity:1;isolation:auto;mix-blend-mode:normal;color-interpolation:sRGB;color-interpolation-filters:linearRGB;solid-color:#000000;solid-opacity:1;fill:none;fill-opacity:1;fill-rule:nonzero;stroke:#808080;stroke-width:14.27462673;stroke-linecap:butt;stroke-linejoin:miter;stroke-miterlimit:4;stroke-dasharray:none;stroke-dashoffset:0;stroke-opacity:1;color-rendering:auto;image-rendering:auto;shape-rendering:auto;text-rendering:auto;enable-background:accumulate"
       d="m -135.21839,307.02745 85.195274,0"
       id="path4193"
       inkscape:connector-curvature="0"
       inkscape:transform-center-x="107.5837"
       inkscape:transform-center-y="-0.19891265" />
    <text
       sodipodi:linespacing="125%"
       id="text4195"
       y="497.01001"
       x="708.33759"
       style="font-style:normal;font-variant:normal;font-weight:normal;font-stretch:normal;font-size:57.01415634px;line-height:125%;font-family:Ubuntu;-inkscape-font-specification:Ubuntu;text-align:end;letter-spacing:0px;word-spacing:0px;text-anchor:end;fill:#000000;fill-opacity:1;stroke:none;stroke-width:1px;stroke-linecap:butt;stroke-linejoin:miter;stroke-opacity:1"
       xml:space="preserve"><tspan
         id="tspan4199"
         y="497.01001"
         x="708.33759"
         sodipodi:role="line"
         style="font-size:45px">aita meeskonnal</tspan><tspan
         y="568.27771"
         x="708.33759"
         sodipodi:role="line"
         id="tspan4210">$team$</tspan><tspan
         id="tspan4201"
         y="639.54541"
         x="708.33759"
         sodipodi:role="line"
         style="font-size:45px">lahing vita</tspan></text>
    <text
       xml:space="preserve"
       style="font-style:normal;font-variant:normal;font-weight:normal;font-stretch:normal;font-size:48.93424988px;line-height:125%;font-family:Ubuntu;-inkscape-font-specification:Ubuntu;text-align:end;letter-spacing:0px;word-spacing:0px;text-anchor:end;fill:#000000;fill-opacity:1;stroke:none;stroke-width:1px;stroke-linecap:butt;stroke-linejoin:miter;stroke-opacity:1"
       x="701.14856"
       y="222.09204"
       id="text4203"
       sodipodi:linespacing="125%"><tspan
         style="font-size:31.25px"
         id="tspan4216"
         sodipodi:role="line"
         x="701.14856"
         y="222.09204">seis kell $time$</tspan><tspan
         id="tspan4322"
         style="font-size:31.25px"
         sodipodi:role="line"
         x="701.14856"
         y="261.15454">$team1$</tspan><tspan
         id="tspan4324"
         style="font-size:31.25px"
         sodipodi:role="line"
         x="701.14856"
         y="300.21704">$team2$</tspan></text>
    <text
       sodipodi:linespacing="125%"
       id="text4220"
       y="-0.50606996"
       x="875.91663"
       style="font-style:normal;font-weight:normal;font-size:17.59811783px;line-height:125%;font-family:sans-serif;text-align:end;letter-spacing:0px;word-spacing:0px;text-anchor:end;fill:#000000;fill-opacity:1;stroke:none;stroke-width:1px;stroke-linecap:butt;stroke-linejoin:miter;stroke-opacity:1"
       xml:space="preserve"><tspan
         style="font-size:17.59811783px"
         y="-0.50606996"
         x="875.91663"
         id="tspan4222"
         sodipodi:role="line">left1</tspan></text>
    <text
       xml:space="preserve"
       style="font-style:normal;font-weight:normal;font-size:12.31868267px;line-height:125%;font-family:sans-serif;text-align:start;letter-spacing:0px;word-spacing:0px;text-anchor:start;fill:#000000;fill-opacity:1;stroke:none;stroke-width:1px;stroke-linecap:butt;stroke-linejoin:miter;stroke-opacity:1"
       x="960.49866"
       y="-0.50606996"
       id="text4266"
       sodipodi:linespacing="125%"><tspan
         sodipodi:role="line"
         id="tspan4268"
         x="960.49866"
         y="-0.50606996"
         style="font-size:17.59811783px;text-align:start;text-anchor:start">right1</tspan></text>
    <text
       xml:space="preserve"
       style="font-style:normal;font-weight:normal;font-size:17.59811783px;line-height:125%;font-family:sans-serif;text-align:end;letter-spacing:0px;word-spacing:0px;text-anchor:end;fill:#000000;fill-opacity:1;stroke:none;stroke-width:1px;stroke-linecap:butt;stroke-linejoin:miter;stroke-opacity:1"
       x="875.91663"
       y="25.54248"
       id="text4270"
       sodipodi:linespacing="125%"><tspan
         sodipodi:role="line"
         id="tspan4272"
         x="875.91663"
         y="25.54248"
         style="font-size:17.59811783px">left2</tspan></text>
    <text
       sodipodi:linespacing="125%"
       id="text4276"
       y="25.54248"
       x="960.49866"
       style="font-style:normal;font-weight:normal;font-size:12.31868267px;line-height:125%;font-family:sans-serif;text-align:start;letter-spacing:0px;word-spacing:0px;text-anchor:start;fill:#000000;fill-opacity:1;stroke:none;stroke-width:1px;stroke-linecap:butt;stroke-linejoin:miter;stroke-opacity:1"
       xml:space="preserve"><tspan
         style="font-size:17.59811783px;text-align:start;text-anchor:start"
         y="25.54248"
         x="960.49866"
         id="tspan4278"
         sodipodi:role="line">right2</tspan></text>
    <text
       sodipodi:linespacing="125%"
       id="text4280"
       y="51.54248"
       x="875.91663"
       style="font-style:normal;font-weight:normal;font-size:17.59811783px;line-height:125%;font-family:sans-serif;text-align:end;letter-spacing:0px;word-spacing:0px;text-anchor:end;fill:#000000;fill-opacity:1;stroke:none;stroke-width:1px;stroke-linecap:butt;stroke-linejoin:miter;stroke-opacity:1"
       xml:space="preserve"><tspan
         style="font-size:17.59811783px"
         y="51.54248"
         x="875.91663"
         id="tspan4282"
         sodipodi:role="line">left3</tspan></text>
    <text
       xml:space="preserve"
       style="font-style:normal;font-weight:normal;font-size:12.31868267px;line-height:125%;font-family:sans-serif;text-align:start;letter-spacing:0px;word-spacing:0px;text-anchor:start;fill:#000000;fill-opacity:1;stroke:none;stroke-width:1px;stroke-linecap:butt;stroke-linejoin:miter;stroke-opacity:1"
       x="960.49866"
       y="51.54248"
       id="text4286"
       sodipodi:linespacing="125%"><tspan
         sodipodi:role="line"
         id="tspan4288"
         x="960.49866"
         y="51.54248"
         style="font-size:17.59811783px;text-align:start;text-anchor:start">right3</tspan></text>
    <text
       xml:space="preserve"
       style="font-style:normal;font-weight:normal;font-size:17.59811783px;line-height:125%;font-family:sans-serif;text-align:end;letter-spacing:0px;word-spacing:0px;text-anchor:end;fill:#000000;fill-opacity:1;stroke:none;stroke-width:1px;stroke-linecap:butt;stroke-linejoin:miter;stroke-opacity:1"
       x="875.91663"
       y="77.542473"
       id="text4290"
       sodipodi:linespacing="125%"><tspan
         sodipodi:role="line"
         id="tspan4292"
         x="875.91663"
         y="77.542473"
         style="font-size:17.59811783px">left4</tspan></text>
    <text
       sodipodi:linespacing="125%"
       id="text4296"
       y="77.542473"
       x="960.49866"
       style="font-style:normal;font-weight:normal;font-size:12.31868267px;line-height:125%;font-family:sans-serif;text-align:start;letter-spacing:0px;word-spacing:0px;text-anchor:start;fill:#000000;fill-opacity:1;stroke:none;stroke-width:1px;stroke-linecap:butt;stroke-linejoin:miter;stroke-opacity:1"
       xml:space="preserve"><tspan
         style="font-size:17.59811783px;text-align:start;text-anchor:start"
         y="77.542473"
         x="960.49866"
         id="tspan4298"
         sodipodi:role="line">right4</tspan></text>
    <text
       sodipodi:linespacing="125%"
       id="text4300"
       y="103.54247"
       x="875.91663"
       style="font-style:normal;font-weight:normal;font-size:17.59811783px;line-height:125%;font-family:sans-serif;text-align:end;letter-spacing:0px;word-spacing:0px;text-anchor:end;fill:#000000;fill-opacity:1;stroke:none;stroke-width:1px;stroke-linecap:butt;stroke-linejoin:miter;stroke-opacity:1"
       xml:space="preserve"><tspan
         style="font-size:17.59811783px"
         y="103.54247"
         x="875.91663"
         id="tspan4302"
         sodipodi:role="line">left5</tspan></text>
    <text
       xml:space="preserve"
       style="font-style:normal;font-weight:normal;font-size:12.31868267px;line-height:125%;font-family:sans-serif;text-align:start;letter-spacing:0px;word-spacing:0px;text-anchor:start;fill:#000000;fill-opacity:1;stroke:none;stroke-width:1px;stroke-linecap:butt;stroke-linejoin:miter;stroke-opacity:1"
       x="960.49866"
       y="103.54247"
       id="text4306"
       sodipodi:linespacing="125%"><tspan
         sodipodi:role="line"
         id="tspan4308"
         x="960.49866"
         y="103.54247"
         style="font-size:17.59811783px;text-align:start;text-anchor:start">right5</tspan></text>
    <use
       x="0"
       y="0"
       xlink:href="#blank"
       id="icon1"
       transform="translate(352.90789,39.266857)"
       width="100%"
       height="100%" />
    <use
       x="0"
       y="0"
       xlink:href="#blank"
       id="icon2"
       transform="translate(352.9079,65.266856)"
       width="100%"
       height="100%" />
    <use
       height="100%"
       width="100%"
       transform="translate(352.9079,91.266856)"
       xlink:href="#blank"
       id="icon3"
       y="0"
       x="0" />
    <use
       x="0"
       y="0"
       xlink:href="#blank"
       id="icon4"
       transform="translate(352.9079,117.26686)"
       width="100%"
       height="100%" />
    <use
       height="100%"
       width="100%"
       transform="translate(352.9079,143.26686)"
       xlink:href="#blank"
       id="icon5"
       y="0"
       x="0" />
    <text
       sodipodi:linespacing="125%"
       id="text4232"
       y="77.208214"
       x="698.77374"
       style="font-style:normal;font-weight:normal;font-size:17.59811783px;line-height:125%;font-family:sans-serif;text-align:end;letter-spacing:0px;word-spacing:0px;text-anchor:end;fill:#000000;fill-opacity:1;stroke:none;stroke-width:1px;stroke-linecap:butt;stroke-linejoin:miter;stroke-opacity:1"
       xml:space="preserve"><tspan
         style="font-size:17.59811783px"
         y="77.208214"
         x="698.77374"
         id="tspan4234"
         sodipodi:role="line">$eventlist2$</tspan></text>
    <text
       xml:space="preserve"
       style="font-style:normal;font-weight:normal;font-size:17.59811783px;line-height:125%;font-family:sans-serif;text-align:end;letter-spacing:0px;word-spacing:0px;text-anchor:end;fill:#000000;fill-opacity:1;stroke:none;stroke-width:1px;stroke-linecap:butt;stroke-linejoin:miter;stroke-opacity:1"
       x="698.77374"
       y="97.208214"
       id="text4236"
       sodipodi:linespacing="125%"><tspan
         sodipodi:role="line"
         id="tspan4238"
         x="698.77374"
         y="97.208214"
         style="font-size:17.59811783px">$eventlist3$</tspan></text>
    <text
       sodipodi:linespacing="125%"
       id="text4240"
       y="117.20821"
       x="698.77374"
       style="font-style:normal;font-weight:normal;font-size:17.59811783px;line-height:125%;font-family:sans-serif;text-align:end;letter-spacing:0px;word-spacing:0px;text-anchor:end;fill:#000000;fill-opacity:1;stroke:none;stroke-width:1px;stroke-linecap:butt;stroke-linejoin:miter;stroke-opacity:1"
       xml:space="preserve"><tspan
         style="font-size:17.59811783px"
         y="117.20821"
         x="698.77374"
         id="tspan4242"
         sodipodi:role="line">$eventlist4$</tspan></text>
    <text
       xml:space="preserve"
       style="font-style:normal;font-weight:normal;font-size:17.59811783px;line-height:125%;font-family:sans-serif;text-align:end;letter-spacing:0px;word-spacing:0px;text-anchor:end;fill:#000000;fill-opacity:1;stroke:none;stroke-width:1px;stroke-linecap:butt;stroke-linejoin:miter;stroke-opacity:1"
       x="698.77374"
       y="137.20822"
       id="text4244"
       sodipodi:linespacing="125%"><tspan
         sodipodi:role="line"
         id="tspan4246"
         x="698.77374"
         y="137.20822"
         style="font-size:17.59811783px">$eventlist5$</tspan></text>
  </g>
</svg>
